<svg width="58" height="24" viewBox="0 0 58 24" fill="none" xmlns="http://www.w3.org/2000/svg">
<path fill-rule="evenodd" clip-rule="evenodd" d="M26.8079 18.7144V11.7328H30.3317C31.7757 11.7328 32.9945 11.238 33.988 10.2623L34.2265 10.0149C36.0414 7.99462 35.9222 4.84741 33.988 2.97832C33.021 1.9888 31.6962 1.45282 30.3317 1.4803H24.6751V18.7144H26.8079ZM26.8082 9.61617V3.59661H30.3856C31.1541 3.59661 31.8828 3.89897 32.426 4.4487C33.5787 5.60313 33.6052 7.52719 32.4923 8.72286C31.949 9.31382 31.1806 9.64366 30.3856 9.61617H26.8082Z" fill="#3C4043"/>
<path fill-rule="evenodd" clip-rule="evenodd" d="M44.1754 7.84333C43.2613 6.97751 42.016 6.53772 40.4396 6.53772C38.4127 6.53772 36.8893 7.30735 35.8825 8.83285L37.7636 10.056C38.4525 9.01151 39.393 8.48927 40.5853 8.48927C41.3404 8.48927 42.069 8.77788 42.6387 9.30012C43.195 9.79488 43.513 10.5095 43.513 11.2654V11.7739C42.6916 11.3066 41.6583 11.0593 40.3866 11.0593C38.9029 11.0593 37.7106 11.4166 36.823 12.145C35.9355 12.8734 35.485 13.8354 35.485 15.0586C35.4586 16.1718 35.9222 17.23 36.7436 17.9447C37.5781 18.7143 38.6379 19.0991 39.8832 19.0991C41.3537 19.0991 42.5194 18.4257 43.407 17.0788H43.4997V18.7143H45.5398V11.4441C45.5398 9.91857 45.0894 8.70916 44.1754 7.84333ZM38.3866 16.5429C37.9494 16.2131 37.6844 15.6771 37.6844 15.0998C37.6844 14.4539 37.9759 13.9179 38.5456 13.4919C39.1286 13.0658 39.8573 12.8459 40.7185 12.8459C41.911 12.8322 42.8384 13.1071 43.5009 13.6568C43.5009 14.5913 43.1432 15.4022 42.441 16.0894C41.805 16.749 40.9438 17.1201 40.0428 17.1201C39.4466 17.1338 38.8636 16.9277 38.3866 16.5429Z" fill="#3C4043"/>
<path d="M50.1235 23.8955L57.2506 6.92252H54.9323L51.6337 15.3884H51.594L48.2159 6.92252H45.8976L50.5739 17.9584L47.9244 23.8955H50.1235Z" fill="#3C4043"/>
<path d="M19.4446 10.2211C19.4446 9.54767 19.3916 8.87425 19.2856 8.21457H10.2906V12.0215H15.4439C15.2319 13.2446 14.5431 14.3441 13.5363 15.0312V17.505H16.6097C18.4113 15.7871 19.4446 13.2446 19.4446 10.2211Z" fill="#4285F4"/>
<path d="M10.291 19.8965C12.861 19.8965 15.0332 19.0168 16.6097 17.505L13.5363 15.0312C12.6752 15.6359 11.576 15.9796 10.291 15.9796C7.8005 15.9796 5.69416 14.2342 4.93905 11.8979H1.77292V14.4541C3.38911 17.7937 6.68771 19.8965 10.291 19.8965Z" fill="#34A853"/>
<path d="M4.93905 11.8979C4.54157 10.6747 4.54195 9.34155 4.93943 8.10465V5.56215H1.77279C0.408092 8.35203 0.408092 11.6504 1.77279 14.4403L4.93905 11.8979Z" fill="#FBBC04"/>
<path d="M10.291 4.0229C11.6555 3.99542 12.967 4.53141 13.9473 5.50718L16.6763 2.67606C14.9409 0.99938 12.6623 0.0785803 10.291 0.106067C6.68771 0.106067 3.38898 2.22253 1.77279 5.56215L4.93905 8.1184C5.69416 5.7683 7.8005 4.0229 10.291 4.0229Z" fill="#EA4335"/>
</svg>
