<svg width="33" height="33" viewBox="0 0 33 33" fill="none" xmlns="http://www.w3.org/2000/svg">
<path fill-rule="evenodd" clip-rule="evenodd" d="M13.4835 6.52211C14.3431 5.66257 15.5089 5.17969 16.7244 5.17969C17.94 5.17969 19.1058 5.66257 19.9654 6.52211C20.8249 7.38166 21.3078 8.54744 21.3078 9.76302V14.3464H12.1411V9.76302C12.1411 8.54744 12.624 7.38166 13.4835 6.52211ZM11.3923 15.8464C11.3919 15.8464 11.3915 15.8464 11.3911 15.8464C11.3907 15.8464 11.3903 15.8464 11.3899 15.8464H10.0578C8.99923 15.8464 8.14111 16.7045 8.14111 17.763V25.763C8.14111 26.8216 8.99923 27.6797 10.0578 27.6797H23.3911C24.4497 27.6797 25.3078 26.8216 25.3078 25.763V17.763C25.3078 16.7045 24.4497 15.8464 23.3911 15.8464H22.059C22.0586 15.8464 22.0582 15.8464 22.0578 15.8464C22.0574 15.8464 22.057 15.8464 22.0566 15.8464H11.3923ZM22.8078 14.3464V9.76302C22.8078 8.14962 22.1669 6.6023 21.026 5.46145C19.8852 4.32061 18.3378 3.67969 16.7244 3.67969C15.111 3.67969 13.5637 4.32061 12.4229 5.46145C11.282 6.6023 10.6411 8.14962 10.6411 9.76302V14.3464H10.0578C8.17081 14.3464 6.64111 15.876 6.64111 17.763V25.763C6.64111 27.65 8.17081 29.1797 10.0578 29.1797H23.3911C25.2781 29.1797 26.8078 27.65 26.8078 25.763V17.763C26.8078 15.876 25.2781 14.3464 23.3911 14.3464H22.8078ZM16.7244 21.1797C16.4023 21.1797 16.1411 21.4409 16.1411 21.763C16.1411 22.0852 16.4023 22.3464 16.7244 22.3464C17.0466 22.3464 17.3078 22.0852 17.3078 21.763C17.3078 21.4409 17.0466 21.1797 16.7244 21.1797ZM14.6411 21.763C14.6411 20.6124 15.5739 19.6797 16.7244 19.6797C17.875 19.6797 18.8078 20.6124 18.8078 21.763C18.8078 22.9136 17.875 23.8464 16.7244 23.8464C15.5739 23.8464 14.6411 22.9136 14.6411 21.763Z" fill="#121212"/>
</svg>
