<svg width="160" height="80" viewBox="0 0 160 80" fill="none" xmlns="http://www.w3.org/2000/svg">
<path fill-rule="evenodd" clip-rule="evenodd" d="M120.672 21.5954C119.905 20.8285 118.836 20.4453 117.851 20.4453H42.4423C41.4696 20.4453 40.4013 20.8697 39.6618 21.5954L24.5277 36.7958C22.9667 38.3434 22.9942 40.8637 24.5552 42.4107L39.703 57.516C40.4288 58.2423 41.4696 58.6662 42.4423 58.6662H117.878C118.836 58.6936 119.905 58.3105 120.672 57.5435L135.819 42.3838C137.339 40.8637 137.339 38.3165 135.819 36.7964L120.672 21.5954ZM119.603 55.379C118.918 56.064 118.014 56.3934 117.11 56.3934V56.394H42.9487C42.0992 56.3653 41.1677 56.0096 40.5107 55.3521L27.1575 42.0138C25.8022 40.658 25.7747 38.4534 27.1306 37.0977L40.4838 23.7319C41.1408 23.0887 42.0723 22.7187 42.9493 22.7187H117.11C117.987 22.7462 118.918 23.0881 119.603 23.7594L132.956 37.1252C133.607 37.7775 133.973 38.6615 133.973 39.5832C133.973 40.505 133.607 41.389 132.956 42.0413L119.603 55.379ZM58.0515 44.5053C59.6752 47.4935 57.7102 50.8393 54.19 50.8393V50.8387H43.5877C43.0147 50.8105 42.7419 50.5214 42.7145 49.957V47.1485C42.7155 47.02 42.7418 46.8929 42.7919 46.7746C42.8419 46.6564 42.9147 46.5494 43.0061 46.4597C43.0975 46.3701 43.2056 46.2997 43.3241 46.2526C43.4427 46.2054 43.5693 46.1825 43.6967 46.1851H50.3964C50.9009 46.1851 51.0379 45.7855 50.8467 45.4964C50.119 44.5729 49.1282 43.4563 48.0547 42.2464C45.8474 39.7587 43.2902 36.8766 41.9497 34.4679C40.8585 32.5128 41.7585 28.2721 45.2656 28.2721H55.4313C55.9638 28.2721 56.3593 28.7265 56.3867 29.2361V32.0314C56.3867 32.6234 56.1413 32.871 55.5135 32.8987H49.578C48.9228 32.8987 48.8406 33.3945 49.0729 33.6421C50.017 34.7852 51.118 36.0015 52.2346 37.2348C54.5071 39.7451 56.8437 42.3263 58.0515 44.5053ZM65.8977 41.4492V49.903C65.8977 50.4126 65.4194 50.8393 64.9977 50.8393H60.9177C60.4942 50.8393 60.0439 50.4126 60.0165 49.9306L59.9897 29.2367C59.9897 28.7 60.3441 28.2733 60.9993 28.2457H64.8744C65.4474 28.2457 65.8977 28.6994 65.8977 29.2367V36.2859H70.5097V29.2367C70.5097 28.81 70.851 28.2733 71.5467 28.2457H75.4362C76.0771 28.2457 76.4184 28.6994 76.4184 29.2367L76.4458 49.903C76.4458 50.4673 75.9955 50.8393 75.4904 50.8393H71.4103C71.0416 50.8393 70.4823 50.385 70.4823 49.903V41.4492H65.8977ZM111.364 50.8393H98.6051C98.1274 50.8117 97.6503 50.302 97.6229 49.903V29.2367C97.6229 28.7824 98.1274 28.2998 98.6325 28.2727H111.336C111.95 28.2727 112.264 28.6171 112.264 29.2091V32.032C112.291 32.5417 111.841 32.8993 111.418 32.8993H103.763V36.8503H108.798C109.303 36.905 109.726 37.3046 109.698 37.7314V40.5952C109.726 41.0225 109.358 41.5039 108.852 41.4762H103.763V46.1575H111.391C111.922 46.1575 112.318 46.5571 112.318 47.1215V49.903C112.318 50.5911 111.922 50.8117 111.364 50.8393ZM118.732 50.8117H114.966C114.515 50.8117 114.065 50.4673 114.038 49.9306V29.2091C114.038 28.6171 114.378 28.2998 114.993 28.2727H118.677C119.209 28.2727 119.578 28.6994 119.605 29.2091V49.9306C119.605 50.4949 119.237 50.8117 118.732 50.8117ZM78.7789 31.4809C78.5335 36.8522 78.5335 42.2321 78.7789 47.6035C78.7789 49.0219 80.3341 50.867 81.9852 50.867H92.0014C93.7072 50.867 95.1266 49.1595 95.1266 47.6035C95.3994 42.1097 95.3994 36.7403 95.1266 31.4532C95.0855 30.0625 93.4338 28.2727 92.0014 28.2727H82.0126C80.2668 28.328 78.8337 30.1731 78.7789 31.4809ZM88.5354 46.4063C87.4573 46.461 86.4197 46.461 85.4101 46.4063C85.042 46.3781 84.6739 46.0343 84.6465 45.3323C84.4279 41.4768 84.3326 37.622 84.6465 33.7533C84.7013 33.0784 84.9878 32.734 85.4101 32.6787C86.4203 32.5687 87.4847 32.5687 88.5354 32.651C88.8767 32.651 89.1495 33.1054 89.1763 33.7527C89.4354 37.6214 89.4354 41.4492 89.1763 45.3317C89.1495 45.8966 88.9857 46.3787 88.5354 46.4063Z" fill="#A7A7A7"/>
</svg>
