<svg width="160" height="80" viewBox="0 0 160 80" fill="none" xmlns="http://www.w3.org/2000/svg">
<path d="M27.7402 36.0951H36.6927V29.1402H44.6524V49.0782H36.6927V41.1196H27.7402V49.0782H19.7749V29.1402H27.7402V36.0951Z" fill="#A7A7A7"/>
<path d="M65.1722 44.5777C67.7659 44.5777 69.2664 43.7724 69.2664 41.2023V29.1402H77.2317V41.5112C77.2317 47.8483 73.3606 49.7786 65.1722 49.7786C56.9838 49.7786 53.1127 47.8483 53.1127 41.5112V29.1402H61.078V41.2023C61.078 43.7724 62.5785 44.5777 65.1722 44.5777Z" fill="#A7A7A7"/>
<path d="M93.4217 35.4277L102.938 36.8176C106.948 37.4077 109.436 39.2499 109.436 42.6252C109.436 47.4843 105.425 49.7731 96.4728 49.7731C90.3482 49.7731 83.6547 48.9348 83.6268 43.072H93.2264C93.2543 43.7393 93.5053 44.1861 94.0743 44.4949C94.6655 44.7762 95.5357 44.9141 96.7796 44.9141C99.2617 44.9141 99.9422 44.2468 99.9422 43.2981C99.9422 42.7135 99.5741 42.1234 98.5031 41.9579L89.4111 40.6177C85.5177 40.0275 83.9057 37.7938 83.9057 35.0031C83.9057 29.8407 89.0207 28.4453 95.5692 28.4453C104.55 28.4453 108.248 30.7618 108.532 34.981H99.2673C99.2673 34.1702 98.7876 33.6628 98.0513 33.3871C97.3485 33.0837 96.4449 32.9679 95.5692 32.9679C93.193 32.9679 92.3786 33.5525 92.3786 34.3908C92.3786 34.9534 92.6296 35.3119 93.4217 35.4277Z" fill="#A7A7A7"/>
<path d="M125.11 36.0951H134.057V29.1402H142.022V49.0782H134.057V41.1196H125.11V49.0782H117.145V29.1402H125.11V36.0951Z" fill="#A7A7A7"/>
</svg>
