<svg width="160" height="80" viewBox="0 0 160 80" fill="none" xmlns="http://www.w3.org/2000/svg">
<path d="M63.9611 51.6208C63.1871 51.6019 62.5302 50.9753 62.5302 50.2007L62.5317 24.8906H54.0812V52.7894C54.0812 54.1574 55.2032 55.2725 56.5814 55.2725H71.3516C72.7374 55.2725 73.8464 54.1567 73.8464 52.7894V24.8906H65.4028L65.3959 50.2007C65.3967 50.9753 64.7382 51.6019 63.9611 51.6208ZM92.2525 24.8906H79.4648C79.1032 24.8912 78.7453 24.9622 78.4115 25.0994C78.0777 25.2367 77.7746 25.4376 77.5195 25.6905C77.2644 25.9435 77.0623 26.2437 76.9249 26.5738C76.7874 26.9039 76.7172 27.2576 76.7183 27.6145V55.2725H85.1772V29.9036C85.1782 29.7194 85.216 29.5372 85.2884 29.3674C85.3608 29.1976 85.4664 29.0436 85.5992 28.9142C85.7319 28.7847 85.8893 28.6824 86.0621 28.613C86.235 28.5437 86.42 28.5086 86.6066 28.5099C87.3959 28.5099 88.0292 29.1109 88.0476 29.8817V55.2733H96.4697V29.8809C96.482 29.1101 97.1137 28.5092 97.9023 28.5092C98.6831 28.5092 99.3286 29.1252 99.3348 29.9028V55.2725H107.794V27.6145C107.795 27.2575 107.725 26.9038 107.587 26.5736C107.449 26.2435 107.247 25.9434 106.992 25.6904C106.737 25.4375 106.433 25.2366 106.099 25.0994C105.765 24.9622 105.407 24.8912 105.046 24.8906H92.2525ZM48.4445 47.6383H39.9076V55.2725H31.4609V24.8906H48.498C50.0231 24.8906 51.2139 26.1144 51.2139 27.6266V44.8986C51.215 45.2582 51.1442 45.6144 51.0055 45.947C50.8668 46.2795 50.6629 46.5816 50.4056 46.8362C50.1483 47.0907 49.8426 47.2926 49.5061 47.4303C49.1695 47.5679 48.8088 47.6386 48.4445 47.6383ZM42.7734 29.9557C42.776 29.768 42.7411 29.5816 42.6706 29.4072C42.6002 29.2329 42.4955 29.074 42.3627 28.9396C42.23 28.8052 42.0716 28.698 41.8968 28.6242C41.722 28.5503 41.5341 28.5112 41.3439 28.5092H39.9076V43.8764H41.3439C42.0881 43.8764 42.7803 43.292 42.7734 42.4487V29.9557Z" fill="#A7A7A7"/>
<path d="M120.601 55.4009V47.7876H117.675V55.4009H109.078V27.7967C109.078 26.2897 110.332 25.0781 111.876 25.0781H126.401C126.769 25.0784 127.134 25.149 127.474 25.2859C127.815 25.4227 128.124 25.6231 128.384 25.8756C128.644 26.1282 128.85 26.4278 128.99 26.7575C129.13 27.0871 129.202 27.4403 129.201 27.7967V55.4009H120.601ZM120.601 44.0329V30.07C120.58 29.2984 119.936 28.7047 119.134 28.7047C118.751 28.704 118.383 28.8492 118.11 29.1088C117.837 29.3684 117.681 29.7216 117.675 30.0919V44.0329H120.601Z" fill="#A7A7A7"/>
</svg>
