<svg width="160" height="80" viewBox="0 0 160 80" fill="none" xmlns="http://www.w3.org/2000/svg">
<path fill-rule="evenodd" clip-rule="evenodd" d="M42.5589 23.7993C36.0078 31.3489 29.7266 40.711 29.6636 47.7089C29.6391 50.3418 30.4957 52.6404 32.5503 54.3814C35.5073 56.8888 38.7652 57.773 42.0073 57.7782C46.7451 57.7847 51.4497 55.909 55.1334 54.4627C61.337 52.0282 129.913 22.8052 129.913 22.8052C130.575 22.4799 130.451 22.0746 129.623 22.2769C129.288 22.3589 54.9669 42.1235 54.9669 42.1235C53.5592 42.5142 52.1045 42.7185 50.6415 42.7311C44.9298 42.7643 39.8473 39.6531 39.8884 33.097C39.9043 30.5317 40.7045 27.4381 42.5589 23.7993Z" fill="#A7A7A7"/>
</svg>
