<svg width="160" height="80" viewBox="0 0 160 80" fill="none" xmlns="http://www.w3.org/2000/svg">
<path d="M101.665 31.8176H106.424V32.7399C109.288 31.5696 112.071 31.009 114.326 33.5485C115.61 33.0049 116.779 32.2949 118.047 31.9993C121.735 31.1245 124.302 33.3583 123.843 37.1242C123.383 40.8902 122.655 44.6409 122.047 48.4154H117.224C117.487 46.7337 117.733 45.1029 118.014 43.4705C118.31 41.658 118.624 39.8438 118.92 38.0347C118.918 38.0067 118.923 37.9785 118.936 37.9532C119.117 36.5841 118.656 35.5462 117.734 35.2829C116.73 35.0026 115.48 35.5632 115.035 36.7981C114.59 38.033 114.424 39.3461 114.187 40.6388C113.774 43.0628 113.413 45.5174 112.984 47.9431C112.942 48.0633 112.873 48.1721 112.781 48.2606C112.69 48.3491 112.579 48.4149 112.458 48.4527C111.041 48.502 109.609 48.468 108.094 48.468C108.391 46.5893 108.688 44.7598 108.983 42.9303C109.263 41.1671 109.577 39.4192 109.831 37.6644C109.979 36.7081 109.551 35.7687 108.827 35.4069C108.102 35.0451 107.164 35.2744 106.439 35.9827C105.518 36.8898 105.469 38.0925 105.27 39.2459C104.761 42.3035 104.283 45.3611 103.772 48.4442H98.9655C99.8716 42.8777 100.761 37.3892 101.665 31.8176ZM58.2685 46.7507C57.7594 49.9153 57.264 52.9321 56.7533 55.9983H51.9296C53.2462 47.921 54.5476 39.8948 55.8642 31.8346H60.6879C60.6387 32.2456 60.5726 32.6244 60.5403 32.954C61.5278 32.5752 62.4831 32.0486 63.5028 31.8346C66.9607 31.0922 69.8247 32.9047 70.7986 36.3174C72.1967 41.2113 68.7371 47.0632 63.7505 48.1758C61.7416 48.5971 59.9312 48.1843 58.2685 46.7507ZM65.9392 39.6298C65.9562 37.7612 65.2487 36.5314 64.0729 36.0863C62.8971 35.6413 61.538 36.1356 60.5335 37.3553C60.0656 37.91 59.7149 38.554 59.5026 39.2483C59.2903 39.9426 59.2208 40.6728 59.2983 41.3947C59.4137 42.6144 59.9244 43.6353 61.1647 44.0633C62.3524 44.4761 63.3704 44.0311 64.2442 43.2242C65.258 42.2948 65.8667 41.0041 65.9392 39.6298ZM19.7754 44.3436C20.8782 43.4212 21.9489 42.5311 23.0195 41.6257C23.4963 42.171 23.9086 42.7299 24.4023 43.1919C25.59 44.33 26.9864 44.3453 28.4744 43.8357C29.9064 43.3414 30.8277 42.385 31.0907 40.8511C31.2604 39.8132 30.96 38.9401 30.054 38.3626C29.4127 37.9515 28.7204 37.6203 28.0451 37.2584C27.6345 37.0444 27.2069 36.8457 26.7946 36.6486C20.9936 33.8118 21.9489 27.452 26.1312 24.5149C28.9138 22.57 31.7948 22.8163 34.6928 24.2024C35.3172 24.4997 35.8941 24.9107 36.5592 25.3065C35.6209 26.4769 34.7488 27.5641 33.8919 28.619C33.1182 28.2792 32.3938 27.8783 31.6201 27.6473C29.7927 27.0867 28.1469 27.8444 27.307 29.56C26.7471 30.7134 26.9932 31.7513 28.096 32.3951C29.1989 33.0389 30.3357 33.5315 31.4385 34.1244C33.4966 35.2302 35.0016 36.7947 35.324 39.2204C35.833 42.9456 33.9666 46.1748 30.5172 47.7138C26.4265 49.5042 22.2475 48.2336 19.7754 44.3436ZM39.0058 31.8176H43.8465C43.2696 35.344 42.7267 38.8399 42.1498 42.3171C41.919 43.7185 42.3195 44.2621 43.7141 44.3776C45.4584 44.5254 46.2592 43.868 46.529 42.1693C47.0719 38.7397 47.6488 35.3117 48.2257 31.8176H53.0494C52.7202 33.9103 52.3911 35.9708 52.045 38.0483C51.8142 39.482 51.5665 40.9157 51.3205 42.3494C50.7775 45.5633 48.6363 47.724 45.4431 48.2506C43.631 48.5479 41.8376 48.5631 40.0917 47.9109C37.9674 47.104 36.8493 45.1097 37.2277 42.8505C37.8198 39.2187 38.3967 35.5598 39.0058 31.8176ZM98.538 40.8342H88.1881C88.0574 42.5481 88.8803 44.2621 90.1155 44.6579C92.1736 45.3374 93.2426 43.9495 94.247 42.4649C95.3838 42.8947 96.5036 43.3142 97.6217 43.7338C96.2389 46.6691 92.1075 49.5858 87.9913 48.2183C85.0933 47.262 83.7105 45.0044 83.4305 42.0691C82.9894 37.537 86.3539 32.9387 90.7501 31.9501C94.5694 31.1007 97.9288 33.309 98.504 37.216C98.6686 38.3609 98.538 39.5805 98.538 40.8342ZM88.6258 37.8666H94.5863C94.0926 35.998 93.1204 35.0145 91.8716 34.9992C90.5041 34.9822 89.1705 36.1526 88.6258 37.8666ZM135.828 42.4649C136.963 42.8947 138.066 43.3142 139.171 43.7185C137.211 47.7393 131.449 50.2788 127.546 47.1295C125.307 45.317 124.633 42.8437 125.078 40.1088C125.687 36.2341 127.826 33.433 131.596 32.1471C135.926 30.6642 139.91 33.416 140.19 37.9991C140.256 38.9214 140.207 39.8438 140.207 40.8342H129.752C129.572 42.4496 130.444 44.1466 131.663 44.6579C132.979 45.2337 134.116 44.6579 135.828 42.4649ZM136.059 37.9158C135.976 36.387 134.774 35.0281 133.473 34.9822C132.058 34.9329 130.395 36.4329 130.249 37.9158H136.059ZM84.0498 31.8006C83.6223 33.2513 83.2269 34.5864 82.8146 35.9878C82.6377 35.9639 82.4622 35.9311 82.2887 35.8893C79.9998 35.1793 78.0248 36.3496 77.5956 38.7397C77.0696 41.658 76.6251 44.5746 76.1466 47.493C76.0974 47.7885 76.0312 48.0858 75.9769 48.4154H71.1753C72.0813 42.8607 72.9704 37.3553 73.8747 31.8176H78.6492C78.634 32.1964 78.6 32.5599 78.5678 32.988C80.2306 31.7343 82.0579 31.5696 84.0498 31.8006Z" fill="#A7A7A7"/>
</svg>
