<svg width="21" height="16" viewBox="0 0 21 16" fill="none" xmlns="http://www.w3.org/2000/svg">
<path fill-rule="evenodd" clip-rule="evenodd" d="M2.07675 2.53075C2.23299 2.01858 2.70925 1.646 3.27254 1.646H17.2725C17.8358 1.646 18.3121 2.01858 18.4683 2.53075L10.2725 7.99461L2.07675 2.53075ZM0.522574 2.88226C0.522435 2.89026 0.522424 2.89826 0.522541 2.90625V12.896C0.522541 14.4148 1.75376 15.646 3.27254 15.646H17.2725C18.7913 15.646 20.0225 14.4148 20.0225 12.896V2.90622M18.5225 4.29738V12.896C18.5225 13.5864 17.9629 14.146 17.2725 14.146H3.27254C2.58218 14.146 2.02254 13.5864 2.02254 12.896V4.29738L9.85652 9.52003C10.1084 9.68798 10.4366 9.68798 10.6886 9.52003L18.5225 4.29738ZM20.0225 2.88229C20.0151 1.36981 18.7868 0.145996 17.2725 0.145996H3.27254C1.75834 0.145996 0.529971 1.3698 0.522574 2.88226" fill="#121212"/>
</svg>
