<svg width="33" height="33" viewBox="0 0 33 33" fill="none" xmlns="http://www.w3.org/2000/svg">
<path d="M25.8335 12.3633H12.5002C11.0274 12.3633 9.8335 13.5572 9.8335 15.0299V23.0299C9.8335 24.5027 11.0274 25.6966 12.5002 25.6966H25.8335C27.3063 25.6966 28.5002 24.5027 28.5002 23.0299V15.0299C28.5002 13.5572 27.3063 12.3633 25.8335 12.3633Z" stroke="#121212" stroke-width="1.5" stroke-linecap="round" stroke-linejoin="round"/>
<path d="M19.1667 21.6966C20.6394 21.6966 21.8333 20.5027 21.8333 19.0299C21.8333 17.5572 20.6394 16.3633 19.1667 16.3633C17.6939 16.3633 16.5 17.5572 16.5 19.0299C16.5 20.5027 17.6939 21.6966 19.1667 21.6966Z" stroke="#121212" stroke-width="1.5" stroke-linecap="round" stroke-linejoin="round"/>
<path d="M23.1667 12.3607V9.69401C23.1667 8.98677 22.8857 8.30849 22.3856 7.80839C21.8855 7.3083 21.2072 7.02734 20.5 7.02734H7.16667C6.45942 7.02734 5.78115 7.3083 5.28105 7.80839C4.78095 8.30849 4.5 8.98677 4.5 9.69401V17.694C4.5 18.4013 4.78095 19.0795 5.28105 19.5796C5.78115 20.0797 6.45942 20.3607 7.16667 20.3607H9.83333" stroke="#121212" stroke-width="1.5" stroke-linecap="round" stroke-linejoin="round"/>
</svg>
