<svg width="84" height="22" viewBox="0 0 84 22" fill="none" xmlns="http://www.w3.org/2000/svg">
<path d="M10.5531 0.0605471H4.21206C4.00214 0.0604137 3.79907 0.135789 3.63945 0.273092C3.47982 0.410394 3.37414 0.600596 3.34143 0.809426L0.776844 17.1849C0.765054 17.2608 0.769757 17.3385 0.790627 17.4125C0.811498 17.4865 0.84804 17.555 0.897739 17.6134C0.947439 17.6718 1.00911 17.7187 1.07852 17.7507C1.14792 17.7828 1.22341 17.7994 1.29977 17.7993H4.32703C4.53708 17.7994 4.74026 17.7239 4.89991 17.5864C5.05955 17.4489 5.16515 17.2585 5.19765 17.0495L5.88933 12.6328C5.92181 12.4239 6.02728 12.2336 6.18673 12.0961C6.34618 11.9587 6.54913 11.8831 6.75903 11.8829H8.76638C12.9433 11.8829 15.354 9.84733 15.9836 5.81347C16.2673 4.04866 15.9956 2.66201 15.1751 1.6909C14.2738 0.624541 12.6754 0.0605471 10.5531 0.0605471ZM11.2846 6.04131C10.9378 8.33277 9.19938 8.33277 7.51839 8.33277H6.56154L7.23282 4.05332C7.25247 3.92812 7.31585 3.8141 7.41154 3.73176C7.50723 3.64942 7.62896 3.60419 7.75483 3.60418H8.19338C9.33845 3.60418 10.4186 3.60418 10.9768 4.26155C11.3096 4.65373 11.4116 5.2364 11.2846 6.04131ZM29.5075 5.96754H26.4709C26.3451 5.96754 26.2234 6.01278 26.1277 6.09512C26.032 6.17745 25.9686 6.29148 25.9489 6.41668L25.8145 7.27201L25.6022 6.962C24.9448 6.00116 23.4789 5.67994 22.0158 5.67994C18.6604 5.67994 15.7944 8.23939 15.2363 11.8297C14.9461 13.6207 15.3587 15.3332 16.3674 16.5275C17.2928 17.6256 18.6168 18.0831 20.1921 18.0831C22.8957 18.0831 24.395 16.3323 24.395 16.3323L24.2596 17.1821C24.2475 17.258 24.252 17.3357 24.2726 17.4098C24.2932 17.4839 24.3296 17.5526 24.3791 17.6112C24.4286 17.6697 24.4902 17.7168 24.5595 17.7491C24.6288 17.7814 24.7043 17.7982 24.7807 17.7983H27.5159C27.7259 17.7984 27.9291 17.7229 28.0888 17.5854C28.2484 17.4479 28.354 17.2575 28.3865 17.0485L30.0276 6.58196C30.0397 6.50616 30.0353 6.42862 30.0147 6.3547C29.9941 6.28078 29.9578 6.21224 29.9084 6.15382C29.8589 6.09539 29.7975 6.04848 29.7283 6.01632C29.659 5.98416 29.5837 5.96752 29.5075 5.96754ZM25.2749 11.9194C24.9819 13.6664 23.605 14.8392 21.8489 14.8392C20.9672 14.8392 20.2625 14.5544 19.8101 14.0147C19.3613 13.4787 19.1907 12.7159 19.3335 11.8661C19.607 10.134 21.0071 8.92291 22.7363 8.92291C23.5985 8.92291 24.2995 9.21144 24.7612 9.75583C25.2239 10.3058 25.4075 11.0734 25.2749 11.9194ZM45.6794 5.96754H42.628C42.4841 5.96777 42.3425 6.00336 42.2153 6.07121C42.0881 6.13906 41.9793 6.23714 41.8983 6.35692L37.6899 12.6001L35.906 6.60063C35.8512 6.41765 35.7394 6.25729 35.5871 6.14327C35.4348 6.02925 35.2501 5.96763 35.0604 5.96754H32.0619C31.9777 5.96732 31.8947 5.98734 31.8198 6.02595C31.7448 6.06456 31.6801 6.12063 31.6311 6.1895C31.582 6.25838 31.55 6.33806 31.5376 6.42191C31.5253 6.50577 31.5331 6.59137 31.5602 6.6716L34.9213 16.605L31.7614 21.0973C31.7053 21.177 31.672 21.2707 31.6652 21.3681C31.6584 21.4655 31.6783 21.563 31.7228 21.6498C31.7674 21.7366 31.8347 21.8093 31.9176 21.8601C32.0005 21.9109 32.0956 21.9378 32.1926 21.9377H35.2402C35.3825 21.9379 35.5228 21.9034 35.6489 21.837C35.775 21.7706 35.8833 21.6745 35.9644 21.5567L46.1133 6.80326C46.1683 6.72344 46.2006 6.62998 46.2066 6.53301C46.2126 6.43604 46.1922 6.33926 46.1475 6.25316C46.1028 6.16706 46.0355 6.09492 45.953 6.04458C45.8705 5.99423 45.7759 5.96759 45.6794 5.96754Z" fill="#253B80"/>
<path d="M56.186 0.0614623H49.7169C49.5029 0.0615496 49.296 0.135545 49.1333 0.270135C48.9707 0.404725 48.863 0.591075 48.8297 0.795653L46.2137 16.8499C46.2015 16.9243 46.2061 17.0003 46.2272 17.0728C46.2484 17.1452 46.2855 17.2124 46.336 17.2697C46.3865 17.3269 46.4492 17.3729 46.5199 17.4044C46.5905 17.4359 46.6674 17.4523 46.7452 17.4523H50.0649C50.2147 17.4521 50.3594 17.4001 50.4732 17.3058C50.5869 17.2115 50.6621 17.081 50.6853 16.9378L51.4278 12.3871C51.4609 12.1823 51.5685 11.9958 51.7311 11.861C51.8938 11.7262 52.1008 11.6521 52.3149 11.652H54.3616C58.6233 11.652 61.0814 9.65629 61.7246 5.70155C62.0149 3.97135 61.7359 2.61191 60.8989 1.65984C59.9805 0.614394 58.3509 0.0614623 56.186 0.0614623ZM56.9323 5.92492C56.5795 8.17144 54.8061 8.17144 53.0905 8.17144H52.1154L52.8011 3.97593C52.8207 3.85318 52.8851 3.7413 52.9826 3.66053C53.0801 3.57976 53.2043 3.53544 53.3326 3.5356H53.78C54.9471 3.5356 56.0498 3.5356 56.6192 4.18007C56.9587 4.56456 57.0618 5.1358 56.9323 5.92492ZM75.5198 5.8526H72.4243C72.2959 5.85226 72.1716 5.89651 72.0741 5.97731C71.9766 6.05811 71.9122 6.1701 71.8927 6.29293L71.7556 7.13148L71.5381 6.82755C70.8675 5.88556 69.3732 5.57064 67.8807 5.57064C64.4579 5.57064 61.5354 8.07989 60.9661 11.5998C60.671 13.3556 61.09 15.0346 62.119 16.2054C63.0648 17.282 64.4135 17.7306 66.0203 17.7306C68.7783 17.7306 70.3076 16.0141 70.3076 16.0141L70.1695 16.8472C70.1572 16.9218 70.1618 16.9981 70.1829 17.0709C70.2041 17.1436 70.2413 17.2111 70.292 17.2685C70.3427 17.326 70.4058 17.3721 70.4767 17.4037C70.5477 17.4352 70.6249 17.4515 70.7029 17.4514H73.4921C73.7062 17.4512 73.9132 17.3771 74.0759 17.2423C74.2385 17.1076 74.3461 16.921 74.3792 16.7162L76.0542 6.45497C76.0661 6.38042 76.0611 6.30426 76.0397 6.23173C76.0183 6.1592 75.981 6.09202 75.9302 6.03479C75.8794 5.97756 75.8165 5.93165 75.7456 5.9002C75.6748 5.86875 75.5978 5.85251 75.5198 5.8526ZM71.2023 11.6877C70.9053 13.4005 69.499 14.5503 67.7076 14.5503C66.8101 14.5503 66.0894 14.2711 65.6278 13.742C65.1701 13.2165 64.9979 12.4686 65.1417 11.6355C65.4226 9.93734 66.8489 8.75 68.6127 8.75C69.4923 8.75 70.2074 9.03287 70.6784 9.56658C71.1522 10.1058 71.3395 10.8583 71.2023 11.6877ZM79.1715 0.501794L76.5167 16.8499C76.5045 16.9243 76.5092 17.0003 76.5303 17.0728C76.5514 17.1452 76.5885 17.2124 76.639 17.2697C76.6895 17.3269 76.7523 17.3729 76.8229 17.4044C76.8936 17.4359 76.9704 17.4523 77.0482 17.4523H79.7173C80.1608 17.4523 80.5372 17.141 80.6053 16.7172L83.2233 0.663828C83.2354 0.589415 83.2308 0.513337 83.2097 0.440824C83.1886 0.36831 83.1515 0.301081 83.101 0.243759C83.0505 0.186436 82.9878 0.140378 82.9171 0.108751C82.8465 0.077125 82.7696 0.0606802 82.6917 0.0605469H79.7031C79.5748 0.0609866 79.4508 0.105632 79.3534 0.186485C79.256 0.267338 79.1915 0.379116 79.1715 0.501794Z" fill="#179BD7"/>
</svg>
