<svg width="88" height="16" viewBox="0 0 88 16" fill="none" xmlns="http://www.w3.org/2000/svg">
<path d="M79.2763 1.35849C79.4916 0.850215 80.2119 0.850213 80.4273 1.35849L81.8589 4.73804C81.9499 4.95279 82.1529 5.09902 82.3854 5.11732L86.0806 5.40818C86.638 5.45205 86.8617 6.14971 86.4338 6.50958L83.6355 8.86308C83.4538 9.01585 83.3744 9.25832 83.4304 9.48896L84.2883 13.02C84.4193 13.5591 83.8353 13.9889 83.3596 13.7036L80.1732 11.7928C79.9753 11.6741 79.7282 11.6741 79.5303 11.7928L76.344 13.7036C75.8682 13.9889 75.2842 13.5591 75.4152 13.02L76.2731 9.48895C76.3291 9.25832 76.2497 9.01585 76.068 8.86308L73.2697 6.50958C72.8418 6.14971 73.0655 5.45205 73.6229 5.40818L77.3182 5.11732C77.5507 5.09902 77.7536 4.95279 77.8446 4.73804L79.2763 1.35849Z" fill="#FD7E14"/>
<path d="M61.3505 1.35849C61.5658 0.850215 62.2862 0.850213 62.5015 1.35849L63.9331 4.73804C64.0241 4.95279 64.2271 5.09902 64.4596 5.11732L68.1548 5.40818C68.7122 5.45205 68.9359 6.14971 68.5081 6.50958L65.7097 8.86308C65.5281 9.01585 65.4486 9.25832 65.5047 9.48896L66.3625 13.02C66.4935 13.5591 65.9095 13.9889 65.4338 13.7036L62.2474 11.7928C62.0496 11.6741 61.8024 11.6741 61.6045 11.7928L58.4182 13.7036C57.9424 13.9889 57.3584 13.5591 57.4894 13.02L58.3473 9.48895C58.4033 9.25832 58.3239 9.01585 58.1423 8.86308L55.3439 6.50958C54.916 6.14971 55.1398 5.45205 55.6971 5.40818L59.3924 5.11732C59.6249 5.09902 59.8278 4.95279 59.9188 4.73804L61.3505 1.35849Z" fill="#FD7E14"/>
<path d="M43.4247 1.35849C43.64 0.850215 44.3604 0.850213 44.5757 1.35849L46.0074 4.73804C46.0983 4.95279 46.3013 5.09902 46.5338 5.11732L50.229 5.40818C50.7864 5.45205 51.0102 6.14971 50.5823 6.50958L47.7839 8.86308C47.6023 9.01585 47.5228 9.25832 47.5789 9.48896L48.4368 13.02C48.5677 13.5591 47.9838 13.9889 47.508 13.7036L44.3216 11.7928C44.1238 11.6741 43.8766 11.6741 43.6788 11.7928L40.4924 13.7036C40.0166 13.9889 39.4327 13.5591 39.5636 13.02L40.4215 9.48895C40.4776 9.25832 40.3981 9.01585 40.2165 8.86308L37.4181 6.50958C36.9902 6.14971 37.214 5.45205 37.7714 5.40818L41.4666 5.11732C41.6991 5.09902 41.9021 4.95279 41.993 4.73804L43.4247 1.35849Z" fill="#FD7E14"/>
<path d="M25.4984 1.35849C25.7138 0.850215 26.4341 0.850213 26.6494 1.35849L28.0811 4.73804C28.1721 4.95279 28.375 5.09902 28.6075 5.11732L32.3028 5.40818C32.8601 5.45205 33.0839 6.14971 32.656 6.50958L29.8577 8.86308C29.676 9.01585 29.5966 9.25832 29.6526 9.48896L30.5105 13.02C30.6415 13.5591 30.0575 13.9889 29.5817 13.7036L26.3954 11.7928C26.1975 11.6741 25.9504 11.6741 25.7525 11.7928L22.5661 13.7036C22.0904 13.9889 21.5064 13.5591 21.6374 13.02L22.4953 9.48895C22.5513 9.25832 22.4718 9.01585 22.2902 8.86308L19.4919 6.50958C19.064 6.14971 19.2877 5.45205 19.8451 5.40818L23.5403 5.11732C23.7728 5.09902 23.9758 4.95279 24.0668 4.73804L25.4984 1.35849Z" fill="#FD7E14"/>
<path d="M7.57266 1.35849C7.78798 0.850215 8.50832 0.850213 8.72364 1.35849L10.1553 4.73804C10.2463 4.95279 10.4493 5.09902 10.6818 5.11732L14.377 5.40818C14.9344 5.45205 15.1581 6.14971 14.7302 6.50958L11.9319 8.86308C11.7502 9.01585 11.6708 9.25832 11.7268 9.48896L12.5847 13.02C12.7157 13.5591 12.1317 13.9889 11.6559 13.7036L8.46959 11.7928C8.27172 11.6741 8.02458 11.6741 7.82671 11.7928L4.64035 13.7036C4.16459 13.9889 3.58061 13.5591 3.71158 13.02L4.56947 9.48895C4.6255 9.25832 4.54607 9.01585 4.36442 8.86308L1.56607 6.50958C1.13818 6.14971 1.36193 5.45205 1.91931 5.40818L5.61454 5.11732C5.84705 5.09902 6.05002 4.95279 6.14099 4.73804L7.57266 1.35849Z" fill="#FD7E14"/>
</svg>
