<svg width="108" height="20" viewBox="0 0 108 20" fill="none" xmlns="http://www.w3.org/2000/svg">
<path d="M98 1.62747L99.9214 6.24697C100.101 6.67976 100.508 6.97547 100.976 7.01293L105.963 7.41275L102.163 10.6676C101.807 10.9725 101.652 11.451 101.76 11.9069L102.921 16.7735L98.6516 14.1656C98.2515 13.9213 97.7485 13.9213 97.3484 14.1656L93.0788 16.7735L94.2396 11.9069C94.3484 11.451 94.1929 10.9725 93.8369 10.6676L90.0373 7.41275L95.0244 7.01293C95.4916 6.97547 95.8986 6.67976 96.0786 6.24697L98 1.62747Z" stroke="#A7A7A7" stroke-width="1.25"/>
<path d="M75.4229 1.38746C75.6364 0.874148 76.3636 0.874147 76.5771 1.38746L78.4984 6.00695C78.5884 6.22335 78.7919 6.3712 79.0256 6.38993L84.0127 6.78975C84.5668 6.83417 84.7916 7.52574 84.3693 7.88741L80.5697 11.1422C80.3917 11.2947 80.314 11.5339 80.3683 11.7619L81.5292 16.6285C81.6582 17.1693 81.0699 17.5967 80.5955 17.3069L76.3258 14.699C76.1258 14.5768 75.8742 14.5768 75.6742 14.699L71.4045 17.3069C70.9301 17.5967 70.3418 17.1693 70.4708 16.6285L71.6317 11.7619C71.686 11.5339 71.6083 11.2947 71.4303 11.1422L67.6307 7.88741C67.2084 7.52574 67.4332 6.83417 67.9873 6.78975L72.9744 6.38993C73.2081 6.3712 73.4116 6.22335 73.5016 6.00695L75.4229 1.38746Z" fill="#FD7E14"/>
<path d="M53.4229 1.38746C53.6364 0.874148 54.3636 0.874147 54.5771 1.38746L56.4984 6.00695C56.5884 6.22335 56.7919 6.3712 57.0256 6.38993L62.0127 6.78975C62.5668 6.83417 62.7916 7.52574 62.3693 7.88741L58.5697 11.1422C58.3917 11.2947 58.314 11.5339 58.3683 11.7619L59.5292 16.6285C59.6582 17.1693 59.0699 17.5967 58.5955 17.3069L54.3258 14.699C54.1258 14.5768 53.8742 14.5768 53.6742 14.699L49.4045 17.3069C48.9301 17.5967 48.3418 17.1693 48.4708 16.6285L49.6317 11.7619C49.686 11.5339 49.6083 11.2947 49.4303 11.1422L45.6307 7.88741C45.2084 7.52574 45.4332 6.83417 45.9873 6.78975L50.9744 6.38993C51.2081 6.3712 51.4116 6.22335 51.5016 6.00695L53.4229 1.38746Z" fill="#FD7E14"/>
<path d="M31.4229 1.38746C31.6364 0.874148 32.3636 0.874147 32.5771 1.38746L34.4984 6.00695C34.5884 6.22335 34.7919 6.3712 35.0256 6.38993L40.0127 6.78975C40.5668 6.83417 40.7916 7.52574 40.3693 7.88741L36.5697 11.1422C36.3917 11.2947 36.314 11.5339 36.3683 11.7619L37.5292 16.6285C37.6582 17.1693 37.0699 17.5967 36.5955 17.3069L32.3258 14.699C32.1258 14.5768 31.8742 14.5768 31.6742 14.699L27.4045 17.3069C26.9301 17.5967 26.3418 17.1693 26.4708 16.6285L27.6317 11.7619C27.686 11.5339 27.6083 11.2947 27.4303 11.1422L23.6307 7.88741C23.2084 7.52574 23.4332 6.83417 23.9873 6.78975L28.9744 6.38993C29.2081 6.3712 29.4116 6.22335 29.5016 6.00695L31.4229 1.38746Z" fill="#FD7E14"/>
<path d="M9.42292 1.38746C9.63642 0.874148 10.3636 0.874147 10.5771 1.38746L12.4984 6.00695C12.5884 6.22335 12.7919 6.3712 13.0256 6.38993L18.0127 6.78975C18.5668 6.83417 18.7916 7.52574 18.3693 7.88741L14.5697 11.1422C14.3917 11.2947 14.314 11.5339 14.3683 11.7619L15.5292 16.6285C15.6582 17.1693 15.0699 17.5967 14.5955 17.3069L10.3258 14.699C10.1258 14.5768 9.87423 14.5768 9.67422 14.699L5.40454 17.3069C4.9301 17.5967 4.34182 17.1693 4.47081 16.6285L5.63167 11.7619C5.68605 11.5339 5.60832 11.2947 5.43032 11.1422L1.63066 7.88741C1.20845 7.52574 1.43315 6.83417 1.98731 6.78975L6.97444 6.38993C7.20806 6.3712 7.41156 6.22335 7.50157 6.00695L9.42292 1.38746Z" fill="#FD7E14"/>
</svg>
