<svg width="474" height="45" viewBox="0 0 474 45" fill="none" xmlns="http://www.w3.org/2000/svg">
<rect y="20" width="474" height="7" rx="3.5" fill="#EAEAEA"/>
<rect y="20" width="362" height="7" rx="3.5" fill="#20C997"/>
<rect x="338.5" y="0.5" width="44" height="44" rx="22" fill="white"/>
<rect x="338.5" y="0.5" width="44" height="44" rx="22" stroke="#F5F5F5"/>
<path fill-rule="evenodd" clip-rule="evenodd" d="M351 15.25C350.586 15.25 350.25 15.5858 350.25 16C350.25 16.4142 350.586 16.75 351 16.75H361.25V17V22V27.25H358.646C358.32 26.0957 357.259 25.25 356 25.25C354.741 25.25 353.68 26.0957 353.354 27.25H352.75V24C352.75 23.5858 352.414 23.25 352 23.25C351.586 23.25 351.25 23.5858 351.25 24V28C351.25 28.4142 351.586 28.75 352 28.75H353.354C353.68 29.9043 354.741 30.75 356 30.75C357.259 30.75 358.32 29.9043 358.646 28.75H362H363.354C363.68 29.9043 364.741 30.75 366 30.75C367.259 30.75 368.32 29.9043 368.646 28.75H370C370.414 28.75 370.75 28.4142 370.75 28V22.0123C370.751 21.9413 370.742 21.8696 370.723 21.7994C370.704 21.7295 370.674 21.6637 370.637 21.6036L367.643 16.6141C367.508 16.3882 367.263 16.25 367 16.25H362.75V16C362.75 15.5858 362.414 15.25 362 15.25H351ZM368.646 27.25H369.25V22.75H362.75V27.25H363.354C363.68 26.0957 364.741 25.25 366 25.25C367.259 25.25 368.32 26.0957 368.646 27.25ZM364.75 28C364.75 27.3096 365.31 26.75 366 26.75C366.69 26.75 367.25 27.3096 367.25 28C367.25 28.6904 366.69 29.25 366 29.25C365.31 29.25 364.75 28.6904 364.75 28ZM354.75 28C354.75 28.6904 355.31 29.25 356 29.25C356.69 29.25 357.25 28.6904 357.25 28C357.25 27.3096 356.69 26.75 356 26.75C355.31 26.75 354.75 27.3096 354.75 28ZM362.75 21.25V17.75H366.575L368.675 21.25H362.75Z" fill="#121212"/>
</svg>
