<svg width="33" height="33" viewBox="0 0 33 33" fill="none" xmlns="http://www.w3.org/2000/svg">
<path fill-rule="evenodd" clip-rule="evenodd" d="M3.1665 6.16797C2.61422 6.16797 2.1665 6.61568 2.1665 7.16797C2.1665 7.72025 2.61422 8.16797 3.1665 8.16797H16.8332V8.5013V15.168V22.168H13.3618C12.9265 20.629 11.5115 19.5013 9.83317 19.5013C8.1548 19.5013 6.73981 20.629 6.30452 22.168H5.49984V17.8346C5.49984 17.2823 5.05212 16.8346 4.49984 16.8346C3.94755 16.8346 3.49984 17.2823 3.49984 17.8346V23.168C3.49984 23.7203 3.94755 24.168 4.49984 24.168H6.30452C6.73981 25.707 8.1548 26.8346 9.83317 26.8346C11.5115 26.8346 12.9265 25.707 13.3618 24.168H17.8332H19.6379C20.0731 25.707 21.4881 26.8346 23.1665 26.8346C24.8449 26.8346 26.2599 25.707 26.6951 24.168H28.4998C29.0521 24.168 29.4998 23.7203 29.4998 23.168V15.1844C29.5015 15.09 29.4898 14.9947 29.464 14.9016C29.4382 14.808 29.3991 14.7198 29.3489 14.6394L25.3573 7.98681C25.1766 7.6856 24.8511 7.5013 24.4998 7.5013H18.8332V7.16797C18.8332 6.61568 18.3855 6.16797 17.8332 6.16797H3.1665ZM26.6951 22.168H27.4998V16.168H18.8332V22.168H19.6379C20.0731 20.629 21.4881 19.5013 23.1665 19.5013C24.8449 19.5013 26.2599 20.629 26.6951 22.168ZM21.4998 23.168C21.4998 24.0884 22.246 24.8346 23.1665 24.8346C24.087 24.8346 24.8332 24.0884 24.8332 23.168C24.8332 22.2475 24.087 21.5013 23.1665 21.5013C22.246 21.5013 21.4998 22.2475 21.4998 23.168ZM11.4998 23.168C11.4998 22.2475 10.7536 21.5013 9.83317 21.5013C8.91269 21.5013 8.1665 22.2475 8.1665 23.168C8.1665 24.0884 8.91269 24.8346 9.83317 24.8346C10.7536 24.8346 11.4998 24.0884 11.4998 23.168ZM18.8332 14.168V9.5013H23.9336L26.7336 14.168H18.8332Z" fill="#121212"/>
</svg>
