<svg width="20" height="16" viewBox="0 0 20 16" fill="none" xmlns="http://www.w3.org/2000/svg">
<path fill-rule="evenodd" clip-rule="evenodd" d="M1.59399 3.94727C1.59399 2.70462 2.60135 1.69727 3.84399 1.69727H15.844C17.0866 1.69727 18.094 2.70462 18.094 3.94727V5.19727H1.59399V3.94727ZM0.0939941 5.94727V3.94727C0.0939941 1.8762 1.77293 0.197266 3.84399 0.197266H15.844C17.9151 0.197266 19.594 1.8762 19.594 3.94727V5.94727V11.9473C19.594 14.0183 17.9151 15.6973 15.844 15.6973H3.84399C1.77293 15.6973 0.0939941 14.0183 0.0939941 11.9473V5.94727ZM18.094 6.69727V11.9473C18.094 13.1899 17.0866 14.1973 15.844 14.1973H3.84399C2.60135 14.1973 1.59399 13.1899 1.59399 11.9473V6.69727H18.094ZM4.09399 10.9473C4.09399 10.5331 4.42978 10.1973 4.84399 10.1973H4.85399C5.26821 10.1973 5.60399 10.5331 5.60399 10.9473C5.60399 11.3615 5.26821 11.6973 4.85399 11.6973H4.84399C4.42978 11.6973 4.09399 11.3615 4.09399 10.9473ZM8.84399 10.1973C8.42978 10.1973 8.09399 10.5331 8.09399 10.9473C8.09399 11.3615 8.42978 11.6973 8.84399 11.6973H10.844C11.2582 11.6973 11.594 11.3615 11.594 10.9473C11.594 10.5331 11.2582 10.1973 10.844 10.1973H8.84399Z" fill="#121212"/>
</svg>
